<?xml version="1.0" encoding="UTF-8" ?>
<!DOCTYPE svg PUBLIC "-//W3C//DTD SVG 1.1//EN" "http://www.w3.org/Graphics/SVG/1.1/DTD/svg11.dtd">
<svg width="964pt" height="874pt" viewBox="0 0 964 874" version="1.1" xmlns="http://www.w3.org/2000/svg">
<g id="#f9f3eeff">
<path fill="#f9f3ee" opacity="1.00" d=" M 297.17 825.33 C 299.06 829.47 300.67 833.73 302.41 837.93 C 298.74 837.68 295.07 837.72 291.41 837.97 C 293.35 833.76 295.19 829.51 297.17 825.33 Z" />
</g>
<g id="#2f2e30ff">
<path fill="#2f2e30" opacity="1.00" d=" M 495.33 37.54 C 495.82 38.62 496.09 39.76 496.15 40.95 C 496.51 49.62 496.74 58.31 497.02 66.99 C 517.70 67.61 538.91 68.75 558.30 76.66 C 571.09 81.53 583.83 89.10 590.28 101.68 C 595.05 111.84 596.80 123.59 594.45 134.62 C 591.15 151.03 583.04 166.41 571.48 178.49 C 560.34 190.82 547.13 201.04 533.59 210.58 C 523.08 217.95 511.25 223.05 500.02 229.17 C 499.98 245.09 500.11 261.02 499.60 276.95 C 498.79 298.32 498.98 319.70 498.52 341.09 C 497.83 371.72 497.96 402.36 497.32 432.99 C 496.70 460.65 497.39 488.34 496.48 516.00 C 495.84 492.34 496.05 468.67 495.10 445.03 C 494.97 428.01 494.10 411.01 494.00 394.00 C 494.17 369.99 493.15 346.00 493.00 322.00 C 493.13 302.99 492.06 284.01 492.00 265.00 C 492.12 254.30 491.39 243.61 491.31 232.91 C 478.25 237.50 464.75 241.15 450.93 242.50 C 444.61 243.16 437.17 241.60 433.65 235.78 C 436.54 237.46 439.28 239.61 442.66 240.22 C 448.70 241.41 454.83 239.95 460.80 239.00 C 471.12 236.86 481.40 234.17 491.12 230.03 C 491.96 227.83 491.41 225.32 491.57 223.01 C 491.01 172.26 492.92 121.55 493.81 70.83 C 451.46 70.71 409.12 76.82 368.45 88.63 C 350.58 94.17 332.95 100.72 316.43 109.58 C 302.30 116.65 289.02 125.64 277.92 136.94 C 269.96 145.19 262.98 155.28 261.90 167.00 C 260.33 179.05 265.92 191.24 275.35 198.70 C 287.91 208.83 304.28 213.23 320.11 214.57 C 310.92 215.20 301.80 212.80 293.14 209.94 C 280.14 205.52 267.46 196.87 262.45 183.58 C 258.00 172.54 260.01 159.86 265.61 149.63 C 270.99 139.78 278.85 131.49 287.42 124.35 C 311.43 105.84 339.47 93.11 368.45 84.59 C 394.33 76.90 420.99 71.67 447.89 69.22 C 463.35 68.05 478.83 66.96 494.34 66.89 C 494.57 57.11 494.93 47.31 495.33 37.54 M 497.00 70.63 C 497.49 98.08 498.12 125.53 498.92 152.98 C 499.12 177.36 499.64 201.73 499.78 226.11 C 506.88 221.57 514.78 218.45 521.80 213.78 C 534.31 205.59 546.50 196.70 556.69 185.69 C 570.16 172.24 581.32 155.81 585.97 137.17 C 588.37 125.73 589.04 113.09 583.49 102.43 C 576.81 90.08 564.44 81.70 551.22 77.64 C 533.76 71.89 515.22 71.05 497.00 70.63 Z" />
<path fill="#2f2e30" opacity="1.00" d=" M 697.96 106.93 C 702.13 106.99 706.29 106.54 710.47 106.62 C 702.58 112.08 694.14 116.71 686.40 122.40 C 672.20 132.95 657.42 142.70 643.15 153.16 C 619.48 170.61 595.22 187.22 571.28 204.29 C 561.22 211.50 551.42 219.17 540.49 225.05 C 545.37 227.81 549.52 231.60 553.49 235.52 C 575.49 256.56 597.78 277.28 620.75 297.26 C 629.08 304.68 638.26 311.06 646.87 318.16 C 668.66 336.26 693.16 350.82 718.33 363.67 C 737.20 372.79 756.74 380.63 776.96 386.20 C 783.92 388.26 791.01 389.82 798.00 391.80 C 760.71 385.51 725.45 370.62 692.26 352.88 C 677.05 344.25 662.22 334.96 647.61 325.35 C 638.16 319.32 629.52 312.13 620.55 305.43 C 607.17 295.27 594.71 283.98 581.84 273.21 C 566.62 259.73 551.51 246.14 536.06 232.94 C 533.60 230.96 530.91 229.12 527.83 228.29 C 524.88 227.72 521.84 227.83 518.95 226.98 C 523.40 224.97 528.48 225.11 532.92 223.06 C 542.44 218.52 551.94 213.75 560.40 207.37 C 579.45 193.94 597.72 179.47 616.12 165.18 C 631.17 153.15 646.80 141.85 662.00 130.01 C 669.60 123.86 677.55 118.19 685.40 112.37 C 689.15 109.78 693.10 106.52 697.96 106.93 Z" />
<path fill="#2f2e30" opacity="1.00" d=" M 69.03 615.04 C 100.87 599.17 136.63 592.42 172.01 591.71 C 189.91 591.71 208.45 593.86 224.40 602.56 C 232.71 607.07 240.05 614.53 241.95 624.07 C 243.99 631.94 242.06 640.29 238.48 647.41 C 233.25 657.06 225.99 665.59 217.26 672.26 C 205.49 680.89 193.05 688.76 179.64 694.60 C 165.31 701.35 150.23 706.62 134.72 709.84 C 131.27 724.06 127.47 738.18 123.47 752.25 C 122.49 755.27 121.82 758.95 118.56 760.38 C 119.66 743.86 123.78 727.72 127.45 711.63 C 117.41 712.38 107.16 714.27 97.23 711.63 C 94.10 710.92 91.17 709.36 88.84 707.15 C 100.97 713.25 115.16 711.67 127.97 708.92 C 136.46 678.88 145.30 648.89 156.81 619.85 C 158.28 616.45 159.12 612.49 162.19 610.10 C 163.20 612.98 162.32 616.00 161.85 618.91 C 160.14 627.58 156.84 635.81 154.20 644.22 C 147.29 665.27 140.83 686.50 135.26 707.95 C 155.99 702.50 176.38 694.98 194.68 683.68 C 207.39 676.22 218.52 666.14 227.32 654.33 C 233.38 645.93 237.57 635.42 235.87 624.93 C 234.28 616.13 227.28 609.46 219.77 605.26 C 209.01 598.70 196.34 596.45 184.00 595.09 C 161.53 593.82 138.99 596.63 117.01 601.16 C 96.37 606.17 76.00 613.03 57.45 623.50 C 45.42 630.22 34.04 638.46 25.08 649.01 C 19.07 656.07 14.79 664.80 14.19 674.15 C 13.58 683.37 17.26 692.70 23.77 699.22 C 30.76 706.41 40.21 710.62 49.71 713.37 C 55.34 715.04 61.24 715.32 66.94 716.69 C 52.66 715.89 37.96 712.31 26.49 703.41 C 18.59 697.00 12.77 687.42 12.86 677.03 C 12.34 666.02 17.45 655.63 24.27 647.30 C 36.02 632.79 52.44 623.06 69.03 615.04 Z" />
<path fill="#2f2e30" opacity="1.00" d=" M 637.13 615.08 C 654.19 607.94 672.44 602.83 691.06 603.06 C 692.95 603.29 695.70 602.63 696.48 604.95 C 678.34 605.72 660.22 609.23 643.57 616.60 C 623.63 625.28 605.13 636.88 587.42 649.40 C 578.13 656.95 568.03 663.38 558.20 670.18 C 543.31 680.16 528.39 690.35 511.95 697.64 C 524.28 699.74 534.14 707.89 543.90 715.12 C 556.80 725.69 569.78 736.29 584.23 744.73 C 600.42 755.12 618.69 761.80 637.25 766.56 C 640.15 767.50 643.69 767.18 646.00 769.44 C 635.88 768.62 626.10 765.51 616.44 762.56 C 596.23 756.07 577.13 746.34 559.58 734.45 C 550.36 727.64 540.94 721.10 531.72 714.29 C 523.60 708.35 514.53 703.04 504.35 701.90 C 497.15 717.16 490.49 732.69 482.89 747.76 C 481.77 749.97 480.30 752.10 478.00 753.22 C 481.35 735.84 491.08 720.57 496.55 703.86 C 487.50 705.98 478.32 708.57 468.94 707.92 C 465.57 707.73 462.41 706.33 459.85 704.19 C 463.19 705.08 466.45 706.53 469.98 706.42 C 479.58 706.29 488.85 703.56 498.02 701.01 C 501.16 694.10 504.33 687.19 507.15 680.14 C 512.30 667.50 518.57 655.34 523.63 642.65 C 527.94 632.31 532.67 622.14 536.63 611.65 C 537.47 608.73 540.04 606.75 543.15 607.55 C 534.54 638.77 518.91 667.37 506.63 697.19 C 520.42 690.29 533.68 682.33 546.01 673.04 C 561.22 662.69 575.49 651.04 590.81 640.83 C 605.41 630.86 620.86 622.03 637.13 615.08 Z" />
<path fill="#2f2e30" opacity="1.00" d=" M 854.46 643.42 C 857.53 640.66 860.88 637.73 865.09 637.01 C 868.16 636.46 871.79 638.56 871.60 641.99 C 870.94 647.81 867.92 652.99 864.78 657.80 C 858.40 667.22 850.74 675.70 842.61 683.63 C 837.43 688.78 832.07 693.79 826.20 698.16 C 823.60 699.94 823.14 703.27 822.10 706.01 C 820.41 711.73 818.67 717.78 819.54 723.79 C 819.99 727.21 823.81 729.03 826.97 728.19 C 837.93 726.16 847.61 719.98 856.44 713.44 C 861.68 709.72 865.72 704.65 870.65 700.58 C 871.83 699.36 873.60 699.86 875.11 699.83 C 872.67 707.54 866.66 713.63 864.57 721.50 C 864.04 723.67 864.34 726.42 866.33 727.79 C 868.98 729.04 871.91 728.01 874.57 727.32 C 883.92 724.43 891.67 718.19 899.26 712.26 C 904.40 708.37 907.90 702.78 913.00 698.84 C 913.75 699.74 916.20 700.38 915.24 701.92 C 911.85 709.22 905.79 715.59 905.00 723.93 C 905.14 726.76 908.20 728.43 910.80 727.86 C 922.09 726.20 931.46 719.05 940.20 712.21 C 944.08 709.38 947.19 705.61 951.23 702.99 C 947.50 708.55 941.96 712.59 936.96 716.95 C 929.71 722.99 921.23 727.77 911.97 729.82 C 907.97 730.49 902.83 730.37 900.43 726.54 C 898.15 722.15 900.45 717.28 901.30 712.83 C 892.72 720.29 882.95 726.90 871.83 729.76 C 867.12 731.15 861.30 729.68 859.12 724.96 C 856.90 721.03 859.00 716.66 859.91 712.69 C 851.31 720.13 841.19 725.83 830.39 729.35 C 825.15 731.18 818.45 730.80 814.88 726.04 C 811.08 720.61 812.63 713.57 813.97 707.58 C 804.43 715.15 794.37 722.14 783.41 727.50 C 780.14 728.98 776.67 730.45 773.01 730.08 C 770.10 729.98 767.94 727.44 767.13 724.84 C 766.43 720.96 768.24 717.28 769.16 713.61 C 762.03 720.14 754.65 726.98 745.40 730.34 C 740.99 732.30 735.47 729.77 733.79 725.33 C 731.86 721.24 733.55 716.72 735.01 712.78 C 724.54 719.19 714.81 727.71 702.53 730.45 C 697.77 731.70 692.32 728.44 691.49 723.54 C 691.05 719.46 692.67 715.56 693.41 711.62 C 684.82 719.37 675.24 726.44 664.11 729.99 C 660.20 731.35 655.12 731.04 652.66 727.28 C 649.73 723.35 651.99 718.40 652.59 714.12 C 645.05 719.87 637.58 726.08 628.60 729.47 C 625.27 730.72 621.00 730.18 618.89 727.07 C 615.85 723.34 618.61 718.55 619.05 714.42 C 613.05 719.75 606.72 724.79 599.66 728.66 C 596.53 730.27 592.89 731.69 589.36 730.58 C 584.78 729.49 582.24 724.00 583.81 719.68 C 588.35 703.95 605.92 693.80 621.86 696.99 C 624.15 697.50 626.09 698.87 628.05 700.11 C 629.40 698.83 630.74 697.53 632.11 696.26 C 633.46 697.12 634.88 697.97 635.97 699.21 C 635.57 701.10 634.22 702.59 633.17 704.17 C 628.99 709.53 625.94 715.76 624.21 722.33 C 623.67 724.10 623.67 725.96 624.01 727.77 C 626.50 727.69 629.09 727.58 631.39 726.47 C 638.61 723.09 645.30 718.60 651.24 713.27 C 655.00 709.97 656.70 705.13 658.81 700.74 C 663.25 690.38 668.65 680.46 672.90 670.01 C 664.68 671.06 656.38 671.27 648.11 671.41 C 647.67 671.15 646.78 670.62 646.33 670.36 C 655.77 669.32 665.28 668.73 674.62 666.91 C 679.01 659.06 682.55 650.74 687.25 643.08 C 689.14 642.20 689.79 644.55 689.67 646.00 C 688.63 653.39 685.40 660.24 681.98 666.80 C 690.10 665.47 698.33 664.99 706.46 663.63 C 709.81 663.01 713.23 662.74 716.64 662.50 C 719.88 656.05 722.26 649.17 726.07 643.01 C 726.63 641.85 727.92 641.47 728.97 640.90 C 730.65 648.09 727.20 655.31 724.02 661.62 C 748.80 657.76 773.99 655.21 799.07 657.02 C 805.70 657.70 814.03 659.87 816.15 667.12 C 813.46 665.08 811.38 662.04 807.97 661.14 C 798.28 658.26 788.02 658.67 778.03 658.68 C 759.42 659.62 740.84 661.33 722.43 664.23 C 715.81 680.05 707.99 695.34 701.03 711.02 C 699.00 715.65 697.11 720.73 698.07 725.86 C 698.42 727.93 700.62 729.24 702.64 728.66 C 713.07 726.65 721.53 719.85 730.20 714.17 C 738.81 709.24 745.68 701.34 755.39 698.38 C 762.78 696.19 771.73 695.01 778.12 700.33 C 779.48 699.11 780.81 697.86 782.17 696.65 C 783.16 697.96 785.58 699.43 784.29 701.30 C 780.53 708.40 775.16 714.93 773.64 723.02 C 773.47 724.59 773.21 727.41 775.45 727.59 C 778.83 727.97 781.98 726.23 784.95 724.84 C 793.50 720.42 801.56 715.08 809.14 709.16 C 811.69 707.09 814.81 705.38 816.23 702.27 C 825.49 680.71 837.47 659.85 854.46 643.42 M 854.24 649.25 C 848.84 656.61 843.77 664.21 839.12 672.07 C 834.51 680.14 829.36 687.98 825.79 696.59 C 828.09 695.39 830.00 693.61 831.84 691.82 C 840.74 683.06 850.03 674.57 857.52 664.52 C 862.45 658.01 867.79 651.21 869.38 643.01 C 870.03 640.56 867.52 638.28 865.19 639.20 C 860.57 641.26 857.26 645.33 854.24 649.25 M 681.06 668.99 C 674.10 682.28 667.65 695.85 661.51 709.55 C 659.42 714.48 657.38 719.61 657.04 725.02 C 656.66 728.01 660.11 729.72 662.63 728.68 C 671.92 726.07 680.15 720.64 687.48 714.50 C 691.44 711.16 695.90 707.92 697.95 702.98 C 703.51 690.14 708.95 677.23 715.40 664.82 C 703.96 666.24 692.54 667.86 681.06 668.99 M 605.43 703.49 C 598.66 707.58 592.00 713.24 590.15 721.29 C 589.76 723.77 588.96 727.16 591.36 728.88 C 593.51 729.45 595.73 728.79 597.67 727.84 C 604.20 724.65 609.80 719.97 615.49 715.53 C 620.38 711.96 623.15 706.41 627.06 701.92 C 625.04 700.92 623.17 699.47 620.94 699.04 C 615.43 698.59 610.10 700.77 605.43 703.49 M 745.28 712.28 C 741.89 716.94 738.50 723.17 741.22 728.94 C 743.20 729.06 745.23 728.94 747.02 727.96 C 754.11 724.49 760.39 719.51 766.11 714.11 C 769.81 710.02 773.45 705.87 777.19 701.81 C 775.09 700.22 772.80 698.48 770.02 698.59 C 760.01 698.35 751.34 704.85 745.28 712.28 Z" />
<path fill="#2f2e30" opacity="1.00" d=" M 917.44 684.33 C 919.73 682.95 923.01 685.28 922.77 687.86 C 921.99 690.00 919.84 692.12 917.38 691.69 C 915.69 691.08 914.96 689.25 913.90 687.97 C 914.96 686.66 915.94 685.20 917.44 684.33 Z" />
<path fill="#2f2e30" opacity="1.00" d=" M 874.42 687.95 C 875.54 684.62 879.77 683.74 882.32 686.06 C 881.94 687.65 881.84 689.51 880.45 690.61 C 878.41 692.90 874.45 690.64 874.42 687.95 Z" />
<path fill="#2f2e30" opacity="1.00" d=" M 206.42 699.47 C 214.34 695.95 224.75 694.21 232.07 699.98 C 233.70 698.66 236.06 695.19 238.02 697.98 C 240.31 700.04 237.75 702.67 236.68 704.64 C 232.42 711.38 226.76 718.58 228.10 727.06 C 230.54 727.58 233.08 727.44 235.34 726.31 C 244.33 722.16 252.21 716.03 260.02 710.02 C 265.73 705.70 271.03 700.59 277.72 697.78 C 278.81 697.28 280.01 697.64 281.14 697.72 C 281.41 707.41 275.52 715.65 272.19 724.37 C 276.82 721.30 279.65 716.34 283.92 712.87 C 290.33 707.50 296.29 701.18 304.22 698.07 C 306.01 697.19 307.99 697.59 309.84 697.99 C 311.17 708.42 304.51 717.51 299.79 726.23 C 306.66 721.78 311.80 715.27 317.99 709.99 C 322.77 705.95 327.48 701.58 333.33 699.14 C 334.78 698.35 336.40 698.79 337.93 699.00 C 338.67 703.69 335.74 707.72 333.86 711.75 C 331.45 716.86 328.56 722.19 329.00 728.03 C 331.85 728.18 334.69 727.58 337.17 726.16 C 342.63 723.19 347.67 719.43 352.23 715.23 C 356.15 710.21 359.29 704.24 364.97 700.91 C 369.53 698.40 374.73 696.64 380.00 696.99 C 382.80 697.17 385.89 699.66 384.99 702.75 C 383.95 706.75 379.97 708.76 376.64 710.60 C 371.52 713.41 365.72 714.41 360.03 715.31 C 359.26 720.27 361.45 726.06 366.75 727.34 C 375.34 729.45 384.32 727.10 392.59 724.57 C 404.57 720.17 416.30 714.38 425.88 705.79 C 427.18 704.68 428.56 703.67 430.05 702.82 C 426.36 708.17 420.63 711.63 415.50 715.46 C 403.32 723.34 389.43 729.10 374.90 730.50 C 368.43 731.14 361.33 730.10 356.21 725.80 C 353.80 723.77 352.98 720.60 352.63 717.61 C 347.23 721.65 341.93 725.99 335.72 728.75 C 332.44 730.19 328.28 730.92 325.12 728.84 C 323.27 727.62 322.66 725.25 323.06 723.17 C 324.37 715.00 329.14 708.06 333.17 701.03 C 327.94 703.14 323.78 707.02 319.57 710.64 C 312.51 716.90 306.14 723.99 298.49 729.57 C 296.36 731.18 293.57 728.92 292.94 726.87 C 293.21 725.10 294.18 723.55 294.98 721.99 C 299.00 714.82 302.73 707.49 305.85 699.88 C 302.26 700.94 298.73 702.38 295.79 704.74 C 285.99 712.28 278.18 722.04 268.56 729.79 C 266.50 731.70 264.18 728.90 263.62 726.97 C 263.94 725.57 264.55 724.29 265.18 723.03 C 269.22 715.32 272.71 707.34 276.83 699.68 C 262.82 708.08 251.53 720.57 236.72 727.78 C 233.76 729.08 230.49 730.37 227.21 729.65 C 223.76 728.94 221.15 725.53 221.27 722.02 C 221.35 718.50 222.81 715.23 223.89 711.94 C 216.45 719.28 208.73 727.12 198.58 730.52 C 192.46 732.83 186.14 726.03 187.80 720.00 C 189.79 710.45 198.19 703.79 206.42 699.47 M 214.68 700.67 C 207.38 703.74 201.20 709.33 197.07 716.05 C 194.74 719.93 192.81 725.23 196.00 729.23 C 202.36 728.39 207.40 724.04 212.34 720.31 C 219.31 715.01 225.09 708.41 230.85 701.87 C 226.50 697.55 219.86 698.72 214.68 700.67 M 374.74 699.59 C 368.48 702.27 363.53 707.54 360.38 713.50 C 366.72 712.79 372.96 710.75 378.43 707.45 C 380.47 706.08 382.92 704.05 382.65 701.36 C 381.46 698.07 377.36 698.60 374.74 699.59 Z" />
<path fill="#2f2e30" opacity="1.00" d=" M 645.03 768.57 C 650.75 769.09 656.41 770.11 662.14 770.66 C 657.10 770.95 652.04 770.55 647.06 769.79 C 646.55 769.48 645.54 768.87 645.03 768.57 Z" />
<path fill="#2f2e30" opacity="1.00" d=" M 410.38 820.49 C 415.85 819.46 422.15 820.70 425.94 825.03 C 431.45 831.67 429.99 842.93 422.55 847.57 C 416.45 852.17 407.25 850.06 402.75 844.21 C 396.57 836.47 399.95 822.40 410.38 820.49 M 409.37 822.41 C 402.46 825.42 401.94 834.24 403.50 840.61 C 404.75 845.38 409.45 848.44 414.16 848.96 C 420.43 849.00 426.07 843.31 426.11 837.07 C 426.50 832.24 425.58 826.65 421.42 823.60 C 417.92 821.39 413.23 820.92 409.37 822.41 Z" />
<path fill="#2f2e30" opacity="1.00" d=" M 456.39 820.53 C 464.56 817.61 475.16 822.89 476.01 831.94 C 477.09 838.32 474.13 845.24 468.33 848.32 C 462.23 851.91 453.88 849.79 449.63 844.32 C 444.25 836.59 446.44 823.29 456.39 820.53 M 459.29 821.16 C 455.74 821.99 452.27 824.28 450.93 827.80 C 449.59 831.32 449.75 835.21 450.12 838.90 C 451.21 846.26 460.57 851.57 467.06 847.15 C 474.26 843.24 475.22 833.21 471.48 826.58 C 469.14 822.37 463.88 820.56 459.29 821.16 Z" />
<path fill="#2f2e30" opacity="1.00" d=" M 671.36 820.33 C 674.33 819.21 678.02 819.38 680.59 821.40 C 682.28 822.74 681.83 825.15 682.10 827.06 C 680.58 824.32 678.78 820.44 674.99 820.99 C 670.73 820.64 667.32 826.50 670.09 829.90 C 673.12 833.38 678.62 832.90 681.72 836.29 C 684.65 840.73 682.42 847.57 677.39 849.36 C 673.68 850.83 669.76 849.40 666.07 848.67 C 665.74 846.36 665.78 844.02 666.09 841.73 C 666.87 843.38 667.09 845.32 668.23 846.80 C 671.44 848.98 676.40 849.37 679.08 846.14 C 680.73 843.85 681.79 839.88 679.07 837.95 C 675.42 835.52 670.13 835.44 667.59 831.45 C 665.77 827.57 667.27 822.13 671.36 820.33 Z" />
<path fill="#2f2e30" opacity="1.00" d=" M 249.17 821.05 C 256.86 820.80 264.57 820.62 272.27 820.76 C 272.23 822.80 272.37 824.93 271.45 826.83 C 271.17 825.24 270.93 823.65 270.74 822.06 C 267.77 822.01 264.80 822.05 261.83 822.19 C 261.66 829.77 261.72 837.37 261.85 844.95 C 261.70 846.81 263.48 847.80 264.52 849.06 C 261.81 849.02 259.11 849.09 256.41 849.21 C 257.41 847.90 259.16 846.87 258.88 844.99 C 259.14 837.36 258.94 829.71 259.00 822.08 C 256.47 822.19 253.93 822.14 251.44 822.52 C 250.00 823.17 249.27 824.72 248.19 825.81 C 248.53 824.22 248.85 822.63 249.17 821.05 Z" />
<path fill="#2f2e30" opacity="1.00" d=" M 287.43 844.41 C 290.79 836.28 294.46 828.29 297.81 820.16 C 300.97 828.29 304.85 836.14 307.52 844.46 C 308.05 846.90 310.57 847.71 312.36 849.05 C 308.78 849.00 305.20 849.12 301.62 849.05 C 302.95 848.27 304.34 847.58 305.71 846.88 C 305.33 844.08 304.19 841.51 302.79 839.09 C 298.94 838.95 295.09 838.94 291.25 839.13 C 290.30 841.43 289.24 843.69 288.44 846.06 C 288.82 847.73 290.99 847.99 292.17 849.02 C 289.04 848.90 285.92 848.82 282.79 849.03 C 284.52 847.69 286.72 846.64 287.43 844.41 M 297.17 825.33 C 295.19 829.51 293.35 833.76 291.41 837.97 C 295.07 837.72 298.74 837.68 302.41 837.93 C 300.67 833.73 299.06 829.47 297.17 825.33 Z" />
<path fill="#2f2e30" opacity="1.00" d=" M 323.32 820.85 C 331.24 820.87 339.16 820.87 347.08 820.77 C 347.12 822.50 347.09 824.24 347.01 825.99 C 346.39 824.73 345.85 823.43 345.41 822.12 C 342.34 821.98 339.26 821.96 336.19 822.08 C 336.21 829.70 336.18 837.33 336.32 844.96 C 336.06 847.01 338.17 847.98 339.32 849.31 C 336.40 849.14 333.49 849.19 330.58 849.40 C 331.71 848.03 333.82 847.02 333.58 844.95 C 333.86 837.31 333.84 829.66 333.83 822.02 C 331.01 821.98 328.19 821.97 325.38 822.12 C 324.66 823.56 323.92 825.00 323.06 826.37 C 323.08 824.52 323.21 822.68 323.32 820.85 Z" />
<path fill="#2f2e30" opacity="1.00" d=" M 361.45 820.92 C 369.28 820.71 377.13 820.74 384.97 820.69 C 385.00 822.88 385.05 825.08 384.89 827.29 C 384.10 825.57 383.51 823.78 382.92 822.01 C 380.08 821.98 377.24 821.98 374.41 822.08 C 374.48 830.32 374.23 838.55 374.16 846.79 C 375.47 847.53 376.82 848.22 378.14 848.98 C 374.85 849.01 371.56 849.09 368.28 849.25 C 369.38 848.33 370.51 847.48 371.63 846.59 C 371.52 838.42 371.62 830.24 371.75 822.07 C 369.24 822.03 366.71 821.87 364.21 822.16 C 362.70 822.97 362.34 824.94 361.31 826.24 C 361.34 824.45 361.41 822.68 361.45 820.92 Z" />
<path fill="#2f2e30" opacity="1.00" d=" M 531.30 820.70 C 534.92 828.87 537.25 837.59 541.52 845.49 C 542.60 847.27 544.45 848.38 545.96 849.78 C 542.57 848.80 539.07 848.82 535.59 849.02 C 536.76 848.17 537.98 847.38 539.20 846.60 C 538.57 844.17 537.79 841.73 536.40 839.62 C 532.72 838.41 528.69 839.15 524.88 838.83 C 523.51 841.55 522.37 844.37 521.22 847.20 C 522.56 847.69 523.89 848.25 525.22 848.82 C 522.70 848.83 520.18 848.80 517.68 849.03 C 518.97 847.49 520.27 845.92 521.11 844.07 C 524.78 836.40 527.46 828.29 531.30 820.70 M 525.48 837.30 C 528.94 837.69 532.41 837.95 535.89 838.06 C 533.56 834.12 532.32 829.69 530.79 825.41 C 528.48 829.11 527.30 833.36 525.48 837.30 Z" />
<path fill="#2f2e30" opacity="1.00" d=" M 559.49 821.07 C 563.67 820.95 567.87 820.75 572.06 820.97 C 575.68 821.05 579.39 824.18 579.05 828.00 C 579.42 831.71 575.77 833.63 573.27 835.58 C 575.81 838.76 577.93 842.28 580.66 845.32 C 582.61 847.55 585.54 848.40 588.10 849.71 C 585.13 849.57 581.72 849.84 579.40 847.63 C 575.89 844.31 573.45 840.08 570.86 836.06 C 569.30 836.12 567.75 836.20 566.21 836.29 C 566.35 840.57 564.54 845.86 568.37 849.04 C 565.58 848.86 562.80 849.01 560.02 849.02 C 561.31 848.15 562.66 847.38 564.01 846.62 C 563.52 838.59 563.42 830.56 562.87 822.54 C 561.72 822.08 560.59 821.59 559.49 821.07 M 566.28 822.01 C 566.16 826.36 566.27 830.71 566.34 835.06 C 569.14 834.72 572.31 834.61 574.35 832.38 C 577.40 830.17 576.81 825.14 573.85 823.15 C 571.51 822.00 568.82 822.07 566.28 822.01 Z" />
<path fill="#2f2e30" opacity="1.00" d=" M 599.17 820.80 C 607.13 820.80 615.09 820.76 623.05 820.58 C 622.96 822.85 622.90 825.13 622.70 827.40 C 621.96 825.66 621.43 823.84 620.92 822.03 C 617.95 821.98 614.98 822.04 612.02 822.13 C 612.00 830.33 611.91 838.54 612.19 846.74 C 613.15 847.48 614.13 848.22 615.12 848.99 C 612.19 849.00 609.26 849.05 606.35 849.11 C 607.39 848.23 608.62 847.55 609.51 846.50 C 609.65 838.37 609.27 830.22 609.50 822.09 C 606.75 822.00 604.01 822.01 601.28 822.08 C 600.53 823.21 599.79 824.35 599.01 825.47 C 599.02 823.90 599.08 822.35 599.17 820.80 Z" />
<path fill="#2f2e30" opacity="1.00" d=" M 639.57 821.01 C 642.47 820.97 645.37 820.97 648.27 820.84 C 647.09 822.06 645.02 823.03 645.47 825.07 C 645.55 831.69 645.33 838.32 645.57 844.95 C 645.36 846.81 647.15 847.82 648.20 849.06 C 645.26 848.97 642.32 849.10 639.39 849.25 C 640.33 848.42 641.29 847.62 642.26 846.83 C 642.40 838.90 642.09 830.97 642.34 823.04 C 641.40 822.36 640.48 821.68 639.57 821.01 Z" />
<path fill="#2f2e30" opacity="1.00" d=" M 699.96 820.87 C 707.84 821.04 715.74 820.55 723.61 821.04 C 723.55 822.73 723.51 824.43 723.42 826.15 C 722.41 825.05 721.92 823.65 721.53 822.26 C 718.45 821.97 715.36 821.96 712.28 822.11 C 712.46 829.99 712.52 837.87 712.51 845.76 C 712.36 847.37 714.14 848.02 715.09 849.00 C 712.50 848.98 709.91 849.05 707.34 849.07 C 708.23 848.32 709.13 847.58 710.04 846.85 C 709.98 838.58 710.05 830.31 709.94 822.05 C 707.69 822.06 705.43 821.94 703.20 822.20 C 701.70 822.80 700.85 824.34 699.64 825.36 C 699.72 823.85 699.83 822.36 699.96 820.87 Z" />
</g>
</svg>
